<svg width="26" height="23" viewBox="0 0 26 23" fill="none" xmlns="http://www.w3.org/2000/svg">
<path d="M12.9593 8.93819C13.198 7.85002 14.5378 2.8862 18.4511 2.8862C20.7164 2.8862 23.1633 4.39313 23.1633 7.74703C23.1633 11.543 19.4623 15.9763 12.9593 20.0171C6.45619 15.9763 2.75517 11.543 2.75517 7.74703C2.75517 4.36204 5.17252 2.88426 7.42558 2.88426C11.4286 2.88426 12.6756 7.86459 12.9593 8.93819ZM0.714355 7.74703C0.714355 11.6994 3.8368 16.9586 12.9593 22.3178C22.0817 16.9586 25.2042 11.6994 25.2042 7.74703C25.2042 0.0112933 15.3593 -1.02441 12.9593 4.11623C10.5735 -0.996238 0.714355 -0.032428 0.714355 7.74703Z" fill="#2F3035"/>
</svg>
